<svg width="15" height="15" viewBox="0 0 15 15" fill="none" xmlns="http://www.w3.org/2000/svg">
<path fill-rule="evenodd" clip-rule="evenodd" d="M3.92239 5.40786C4.02983 5.30449 4.17392 5.248 4.323 5.25081C4.47207 5.25363 4.61392 5.31551 4.71739 5.42286L7.49989 8.37636L10.2824 5.42286C10.333 5.3671 10.3942 5.32206 10.4625 5.29041C10.5308 5.25876 10.6048 5.24114 10.68 5.2386C10.7553 5.23606 10.8302 5.24865 10.9005 5.27561C10.9708 5.30258 11.035 5.34338 11.0892 5.3956C11.1434 5.44782 11.1866 5.51039 11.2162 5.57961C11.2458 5.64882 11.2612 5.72328 11.2615 5.79856C11.2618 5.87384 11.247 5.94841 11.2179 6.01786C11.1889 6.08731 11.1462 6.15022 11.0924 6.20286L7.90489 9.57786C7.85242 9.6323 7.78951 9.6756 7.71992 9.70518C7.65034 9.73476 7.5755 9.75 7.49989 9.75C7.42428 9.75 7.34944 9.73476 7.27986 9.70518C7.21027 9.6756 7.14736 9.6323 7.09489 9.57786L3.90739 6.20286C3.80402 6.09542 3.74753 5.95133 3.75034 5.80226C3.75316 5.65319 3.81504 5.51133 3.92239 5.40786Z" fill="#1F2937"/>
</svg>
