<svg width="16" height="16" viewBox="0 0 16 16" fill="none" xmlns="http://www.w3.org/2000/svg">
<path d="M8.5 3.025V2H9C9.13261 2 9.25979 1.94732 9.35355 1.85355C9.44732 1.75979 9.5 1.63261 9.5 1.5C9.5 1.36739 9.44732 1.24021 9.35355 1.14645C9.25979 1.05268 9.13261 1 9 1H7C6.86739 1 6.74022 1.05268 6.64645 1.14645C6.55268 1.24021 6.5 1.36739 6.5 1.5C6.5 1.63261 6.55268 1.75979 6.64645 1.85355C6.74022 1.94732 6.86739 2 7 2H7.5V3.025C6.25776 3.12716 5.07897 3.61687 4.13 4.425L3.705 4L3.855 3.855C3.94915 3.76085 4.00205 3.63315 4.00205 3.5C4.00205 3.36685 3.94915 3.23915 3.855 3.145C3.76085 3.05085 3.63315 2.99795 3.5 2.99795C3.36685 2.99795 3.23915 3.05085 3.145 3.145L2.145 4.145C2.05085 4.23915 1.99796 4.36685 1.99796 4.5C1.99796 4.63315 2.05085 4.76085 2.145 4.855C2.23915 4.94915 2.36685 5.00205 2.5 5.00205C2.63315 5.00205 2.76085 4.94915 2.855 4.855L3 4.705L3.425 5.13C2.55612 6.15731 2.05776 7.44686 2.00996 8.79149C1.96216 10.1361 2.3677 11.4578 3.16144 12.5442C3.95518 13.6306 5.09104 14.4187 6.38658 14.7819C7.68212 15.1451 9.06213 15.0623 10.3049 14.5468C11.5478 14.0313 12.5812 13.1131 13.2394 11.9395C13.8975 10.766 14.1421 9.40531 13.9339 8.07604C13.7256 6.74677 13.0767 5.52607 12.0912 4.61002C11.1057 3.69397 9.84092 3.13574 8.5 3.025ZM8 14C7.01109 14 6.0444 13.7068 5.22215 13.1573C4.3999 12.6079 3.75904 11.827 3.3806 10.9134C3.00217 9.99979 2.90315 8.99445 3.09607 8.02455C3.289 7.05464 3.7652 6.16373 4.46447 5.46447C5.16373 4.7652 6.05464 4.289 7.02455 4.09607C7.99445 3.90315 8.99979 4.00216 9.91342 4.3806C10.827 4.75904 11.6079 5.3999 12.1573 6.22215C12.7068 7.04439 13 8.01109 13 9C13 9.65661 12.8707 10.3068 12.6194 10.9134C12.3681 11.52 11.9998 12.0712 11.5355 12.5355C11.0712 12.9998 10.52 13.3681 9.91342 13.6194C9.30679 13.8707 8.65661 14 8 14Z" fill="black"/>
<path d="M8.5 8.5V6.5C8.5 6.36739 8.44732 6.24021 8.35355 6.14645C8.25979 6.05268 8.13261 6 8 6C7.86739 6 7.74021 6.05268 7.64645 6.14645C7.55268 6.24021 7.5 6.36739 7.5 6.5V8.73C7.50009 8.80099 7.5153 8.87115 7.54461 8.93581C7.57392 9.00047 7.61667 9.05814 7.67 9.105L9.67 10.875C9.71868 10.9218 9.77632 10.9582 9.83945 10.9821C9.90258 11.0059 9.96989 11.0168 10.0373 11.014C10.1048 11.0111 10.1709 10.9947 10.2318 10.9656C10.2927 10.9365 10.3471 10.8954 10.3917 10.8447C10.4363 10.794 10.4702 10.7349 10.4913 10.6708C10.5124 10.6066 10.5203 10.5389 10.5145 10.4717C10.5088 10.4044 10.4894 10.339 10.4577 10.2795C10.426 10.2199 10.3826 10.1673 10.33 10.125L8.5 8.5Z" fill="black"/>
</svg>
