<svg width="40" height="40" viewBox="0 0 40 40" fill="none" xmlns="http://www.w3.org/2000/svg">
<path d="M0 20C0 8.95431 8.95431 0 20 0C31.0457 0 40 8.95431 40 20C40 31.0457 31.0457 40 20 40C8.95431 40 0 31.0457 0 20Z" fill="#EBF3FF"/>
<path d="M28 28H12V12H28V28Z" stroke="#E5E7EB"/>
<path d="M15 12C13.8969 12 13 12.8969 13 14V26C13 27.1031 13.8969 28 15 28H24C25.1031 28 26 27.1031 26 26V14C26 12.8969 25.1031 12 24 12H15ZM18.5 21H20.5C21.8813 21 23 22.1187 23 23.5C23 23.775 22.775 24 22.5 24H16.5C16.225 24 16 23.775 16 23.5C16 22.1187 17.1188 21 18.5 21ZM17.5 18C17.5 17.4696 17.7107 16.9609 18.0858 16.5858C18.4609 16.2107 18.9696 16 19.5 16C20.0304 16 20.5391 16.2107 20.9142 16.5858C21.2893 16.9609 21.5 17.4696 21.5 18C21.5 18.5304 21.2893 19.0391 20.9142 19.4142C20.5391 19.7893 20.0304 20 19.5 20C18.9696 20 18.4609 19.7893 18.0858 19.4142C17.7107 19.0391 17.5 18.5304 17.5 18ZM28 14.5C28 14.225 27.775 14 27.5 14C27.225 14 27 14.225 27 14.5V16.5C27 16.775 27.225 17 27.5 17C27.775 17 28 16.775 28 16.5V14.5ZM27.5 18C27.225 18 27 18.225 27 18.5V20.5C27 20.775 27.225 21 27.5 21C27.775 21 28 20.775 28 20.5V18.5C28 18.225 27.775 18 27.5 18ZM28 22.5C28 22.225 27.775 22 27.5 22C27.225 22 27 22.225 27 22.5V24.5C27 24.775 27.225 25 27.5 25C27.775 25 28 24.775 28 24.5V22.5Z" fill="#3B82F6"/>
</svg>
