<svg width="16" height="16" viewBox="0 0 16 16" fill="none" xmlns="http://www.w3.org/2000/svg">
<path fill-rule="evenodd" clip-rule="evenodd" d="M3.64665 3.64644C3.7404 3.55281 3.86749 3.50022 3.99999 3.50022C4.13249 3.50022 4.25957 3.55281 4.35332 3.64644L7.99999 7.29311L11.6467 3.64644C11.6924 3.59732 11.7476 3.55792 11.809 3.53059C11.8703 3.50326 11.9365 3.48857 12.0036 3.48738C12.0708 3.4862 12.1375 3.49855 12.1997 3.52369C12.262 3.54884 12.3185 3.58627 12.366 3.63375C12.4135 3.68123 12.4509 3.73779 12.4761 3.80004C12.5012 3.8623 12.5136 3.92899 12.5124 3.99613C12.5112 4.06326 12.4965 4.12947 12.4692 4.1908C12.4418 4.25214 12.4024 4.30734 12.3533 4.35311L8.70665 7.99978L12.3533 11.6464C12.4024 11.6922 12.4418 11.7474 12.4692 11.8088C12.4965 11.8701 12.5112 11.9363 12.5124 12.0034C12.5136 12.0706 12.5012 12.1372 12.4761 12.1995C12.4509 12.2618 12.4135 12.3183 12.366 12.3658C12.3185 12.4133 12.262 12.4507 12.1997 12.4759C12.1375 12.501 12.0708 12.5134 12.0036 12.5122C11.9365 12.511 11.8703 12.4963 11.809 12.469C11.7476 12.4416 11.6924 12.4022 11.6467 12.3531L7.99999 8.70644L4.35332 12.3531C4.25854 12.4414 4.13317 12.4895 4.00364 12.4872C3.8741 12.4849 3.75051 12.4325 3.65891 12.3409C3.5673 12.2492 3.51482 12.1257 3.51254 11.9961C3.51025 11.8666 3.55833 11.7412 3.64665 11.6464L7.29332 7.99978L3.64665 4.35311C3.55302 4.25936 3.50043 4.13228 3.50043 3.99978C3.50043 3.86728 3.55302 3.74019 3.64665 3.64644Z" fill="black"/>
</svg>
