<svg width="10" height="11" viewBox="0 0 10 11" fill="none" xmlns="http://www.w3.org/2000/svg">
<path fill-rule="evenodd" clip-rule="evenodd" d="M0.646654 1.14644C0.740404 1.05281 0.867487 1.00022 0.999987 1.00022C1.13249 1.00022 1.25957 1.05281 1.35332 1.14644L4.99999 4.79311L8.64665 1.14644C8.69243 1.09732 8.74763 1.05792 8.80896 1.03059C8.87029 1.00326 8.9365 0.988567 9.00364 0.987383C9.07078 0.986198 9.13746 0.998548 9.19972 1.02369C9.26198 1.04884 9.31853 1.08627 9.36601 1.13375C9.41349 1.18123 9.45092 1.23779 9.47607 1.30004C9.50122 1.3623 9.51357 1.42899 9.51238 1.49613C9.5112 1.56326 9.4965 1.62947 9.46918 1.6908C9.44185 1.75214 9.40245 1.80734 9.35332 1.85311L5.70665 5.49978L9.35332 9.14644C9.40245 9.19222 9.44185 9.24742 9.46918 9.30875C9.4965 9.37008 9.5112 9.43629 9.51238 9.50343C9.51357 9.57056 9.50122 9.63725 9.47607 9.69951C9.45092 9.76177 9.41349 9.81832 9.36601 9.8658C9.31853 9.91328 9.26198 9.95071 9.19972 9.97586C9.13746 10.001 9.07078 10.0134 9.00364 10.0122C8.9365 10.011 8.87029 9.99629 8.80896 9.96896C8.74763 9.94164 8.69243 9.90224 8.64665 9.85311L4.99999 6.20644L1.35332 9.85311C1.25854 9.94143 1.13317 9.98951 1.00364 9.98723C0.874105 9.98494 0.750515 9.93247 0.658906 9.84086C0.567297 9.74925 0.514823 9.62566 0.512537 9.49612C0.510252 9.36659 0.558334 9.24123 0.646654 9.14644L4.29332 5.49978L0.646654 1.85311C0.55302 1.75936 0.500427 1.63228 0.500427 1.49978C0.500427 1.36728 0.55302 1.24019 0.646654 1.14644Z" fill="black"/>
</svg>
