<svg width="9" height="5" viewBox="0 0 9 5" fill="none" xmlns="http://www.w3.org/2000/svg">
<path fill-rule="evenodd" clip-rule="evenodd" d="M0.922498 0.407861C1.02994 0.304489 1.17403 0.248002 1.3231 0.250815C1.47217 0.253627 1.61403 0.315509 1.7175 0.422861L4.5 3.37636L7.2825 0.422861C7.33308 0.367103 7.39433 0.322064 7.46263 0.290413C7.53094 0.258762 7.6049 0.241144 7.68014 0.238602C7.75537 0.23606 7.83036 0.248646 7.90064 0.275614C7.97092 0.302582 8.03508 0.343384 8.0893 0.395601C8.14353 0.447819 8.18672 0.510389 8.21632 0.579606C8.24592 0.648822 8.26133 0.723276 8.26163 0.798556C8.26192 0.873835 8.24711 0.948409 8.21806 1.01786C8.189 1.08731 8.14631 1.15022 8.0925 1.20286L4.905 4.57786C4.85253 4.6323 4.78962 4.6756 4.72003 4.70518C4.65044 4.73476 4.57561 4.75 4.5 4.75C4.42439 4.75 4.34955 4.73476 4.27996 4.70518C4.21038 4.6756 4.14747 4.6323 4.095 4.57786L0.907498 1.20286C0.804125 1.09542 0.747639 0.951328 0.750451 0.802257C0.753264 0.653185 0.815146 0.511329 0.922498 0.407861Z" fill="#1F2937"/>
</svg>
