<svg width="36" height="36" viewBox="0 0 36 36" fill="none" xmlns="http://www.w3.org/2000/svg">
<rect x="0.5" y="0.5" width="35" height="35" rx="9.5" fill="white"/>
<rect x="0.5" y="0.5" width="35" height="35" rx="9.5" stroke="#EAEAEA"/>
<path d="M18 16.9219C18.5954 16.9219 19.0781 17.4046 19.0781 18C19.0781 18.5954 18.5954 19.0781 18 19.0781C17.4046 19.0781 16.9219 18.5954 16.9219 18C16.9219 17.4046 17.4046 16.9219 18 16.9219Z" fill="#0C1523" stroke="#0C1523" stroke-width="0.09375"/>
<path d="M18 10.5469C18.5954 10.5469 19.0781 11.0296 19.0781 11.625C19.0781 12.2204 18.5954 12.7031 18 12.7031C17.4046 12.7031 16.9219 12.2204 16.9219 11.625C16.9219 11.0296 17.4046 10.5469 18 10.5469Z" fill="#0C1523" stroke="#0C1523" stroke-width="0.09375"/>
<path d="M18 25.5C18.6213 25.5 19.125 24.9963 19.125 24.375C19.125 23.7537 18.6213 23.25 18 23.25C17.3787 23.25 16.875 23.7537 16.875 24.375C16.875 24.9963 17.3787 25.5 18 25.5Z" fill="#0C1523"/>
</svg>
