<svg width="53" height="48" viewBox="0 0 53 48" fill="none" xmlns="http://www.w3.org/2000/svg">
<path fill-rule="evenodd" clip-rule="evenodd" d="M20.0025 4.00781C22.89 -0.992188 30.11 -0.992188 32.995 4.00781L51.3825 35.8778C54.2675 40.8778 50.6575 47.1278 44.885 47.1278H8.11246C2.33996 47.1278 -1.26754 40.8778 1.61746 35.8778L20 4.00781H20.0025ZM26.5 17.1253C26.9972 17.1253 27.4742 17.3229 27.8258 17.6745C28.1774 18.0261 28.375 18.503 28.375 19.0003V28.3753C28.375 28.8726 28.1774 29.3495 27.8258 29.7011C27.4742 30.0528 26.9972 30.2503 26.5 30.2503C26.0027 30.2503 25.5258 30.0528 25.1741 29.7011C24.8225 29.3495 24.625 28.8726 24.625 28.3753V19.0003C24.625 18.503 24.8225 18.0261 25.1741 17.6745C25.5258 17.3229 26.0027 17.1253 26.5 17.1253ZM26.5 37.7503C26.9972 37.7503 27.4742 37.5528 27.8258 37.2011C28.1774 36.8495 28.375 36.3726 28.375 35.8753C28.375 35.378 28.1774 34.9011 27.8258 34.5495C27.4742 34.1979 26.9972 34.0003 26.5 34.0003C26.0027 34.0003 25.5258 34.1979 25.1741 34.5495C24.8225 34.9011 24.625 35.378 24.625 35.8753C24.625 36.3726 24.8225 36.8495 25.1741 37.2011C25.5258 37.5528 26.0027 37.7503 26.5 37.7503Z" fill="black"/>
</svg>
