<svg width="81" height="80" viewBox="0 0 81 80" fill="none" xmlns="http://www.w3.org/2000/svg">
<path d="M40.5 0C62.5914 0 80.5 17.9086 80.5 40C80.5 62.0914 62.5914 80 40.5 80C18.4086 80 0.5 62.0914 0.5 40C0.5 17.9086 18.4086 0 40.5 0Z" fill="#D1D5DB"/>
<path d="M40.5 0C62.5914 0 80.5 17.9086 80.5 40C80.5 62.0914 62.5914 80 40.5 80C18.4086 80 0.5 62.0914 0.5 40C0.5 17.9086 18.4086 0 40.5 0Z" stroke="#E5E7EB"/>
<path d="M55.5 52H25.5V28H55.5V52Z" stroke="#E5E7EB"/>
<g clip-path="url(#clip0_154_1518)">
<path d="M32.25 28C33.2446 28 34.1984 28.3951 34.9017 29.0983C35.6049 29.8016 36 30.7554 36 31.75C36 32.7446 35.6049 33.6984 34.9017 34.4017C34.1984 35.1049 33.2446 35.5 32.25 35.5C31.2554 35.5 30.3016 35.1049 29.5983 34.4017C28.8951 33.6984 28.5 32.7446 28.5 31.75C28.5 30.7554 28.8951 29.8016 29.5983 29.0983C30.3016 28.3951 31.2554 28 32.25 28ZM49.5 28C50.4946 28 51.4484 28.3951 52.1516 29.0983C52.8549 29.8016 53.25 30.7554 53.25 31.75C53.25 32.7446 52.8549 33.6984 52.1516 34.4017C51.4484 35.1049 50.4946 35.5 49.5 35.5C48.5054 35.5 47.5516 35.1049 46.8484 34.4017C46.1451 33.6984 45.75 32.7446 45.75 31.75C45.75 30.7554 46.1451 29.8016 46.8484 29.0983C47.5516 28.3951 48.5054 28 49.5 28ZM25.5 42.0016C25.5 39.2406 27.7406 37 30.5016 37H32.5031C33.2484 37 33.9563 37.1641 34.5938 37.4547C34.5328 37.7922 34.5047 38.1438 34.5047 38.5C34.5047 40.2906 35.2922 41.8984 36.5344 43C36.525 43 36.5156 43 36.5016 43H26.4984C25.95 43 25.5 42.55 25.5 42.0016ZM44.4984 43C44.4891 43 44.4797 43 44.4656 43C45.7125 41.8984 46.4953 40.2906 46.4953 38.5C46.4953 38.1438 46.4625 37.7969 46.4062 37.4547C47.0438 37.1594 47.7516 37 48.4969 37H50.4984C53.2594 37 55.5 39.2406 55.5 42.0016C55.5 42.5547 55.05 43 54.5016 43H44.4984ZM36 38.5C36 37.3065 36.4741 36.1619 37.318 35.318C38.1619 34.4741 39.3065 34 40.5 34C41.6935 34 42.8381 34.4741 43.682 35.318C44.5259 36.1619 45 37.3065 45 38.5C45 39.6935 44.5259 40.8381 43.682 41.682C42.8381 42.5259 41.6935 43 40.5 43C39.3065 43 38.1619 42.5259 37.318 41.682C36.4741 40.8381 36 39.6935 36 38.5ZM31.5 50.7484C31.5 47.2984 34.2984 44.5 37.7484 44.5H43.2516C46.7016 44.5 49.5 47.2984 49.5 50.7484C49.5 51.4375 48.9422 52 48.2484 52H32.7516C32.0625 52 31.5 51.4422 31.5 50.7484Z" fill="#4B5563"/>
</g>
<defs>
<clipPath id="clip0_154_1518">
<path d="M25.5 28H55.5V52H25.5V28Z" fill="white"/>
</clipPath>
</defs>
</svg>
