<svg width="26" height="26" viewBox="0 0 26 26" fill="none" xmlns="http://www.w3.org/2000/svg">
<path d="M7.04169 4.33301C7.75998 4.33301 8.44886 4.61835 8.95677 5.12626C9.46468 5.63417 9.75002 6.32305 9.75002 7.04134C9.75002 7.75964 9.46468 8.44851 8.95677 8.95642C8.44886 9.46433 7.75998 9.74967 7.04169 9.74967C6.32339 9.74967 5.63452 9.46433 5.12661 8.95642C4.6187 8.44851 4.33335 7.75964 4.33335 7.04134C4.33335 6.32305 4.6187 5.63417 5.12661 5.12626C5.63452 4.61835 6.32339 4.33301 7.04169 4.33301ZM19.5 4.33301C20.2183 4.33301 20.9072 4.61835 21.4151 5.12626C21.923 5.63417 22.2084 6.32305 22.2084 7.04134C22.2084 7.75964 21.923 8.44851 21.4151 8.95642C20.9072 9.46433 20.2183 9.74967 19.5 9.74967C18.7817 9.74967 18.0928 9.46433 17.5849 8.95642C17.077 8.44851 16.7917 7.75964 16.7917 7.04134C16.7917 6.32305 17.077 5.63417 17.5849 5.12626C18.0928 4.61835 18.7817 4.33301 19.5 4.33301ZM2.16669 14.4452C2.16669 12.4512 3.78492 10.833 5.77893 10.833H7.2245C7.76278 10.833 8.27398 10.9515 8.7344 11.1614C8.69038 11.4051 8.67007 11.659 8.67007 11.9163C8.67007 13.2096 9.23882 14.3708 10.136 15.1663C10.1292 15.1663 10.1224 15.1663 10.1123 15.1663H2.88778C2.49169 15.1663 2.16669 14.8413 2.16669 14.4452ZM15.8878 15.1663C15.881 15.1663 15.8742 15.1663 15.8641 15.1663C16.7646 14.3708 17.33 13.2096 17.33 11.9163C17.33 11.659 17.3063 11.4085 17.2656 11.1614C17.7261 10.9481 18.2373 10.833 18.7755 10.833H20.2211C22.2151 10.833 23.8334 12.4512 23.8334 14.4452C23.8334 14.8447 23.5084 15.1663 23.1123 15.1663H15.8878ZM9.75002 11.9163C9.75002 11.0544 10.0924 10.2277 10.7019 9.61824C11.3114 9.00875 12.1381 8.66634 13 8.66634C13.862 8.66634 14.6886 9.00875 15.2981 9.61824C15.9076 10.2277 16.25 11.0544 16.25 11.9163C16.25 12.7783 15.9076 13.6049 15.2981 14.2144C14.6886 14.8239 13.862 15.1663 13 15.1663C12.1381 15.1663 11.3114 14.8239 10.7019 14.2144C10.0924 13.6049 9.75002 12.7783 9.75002 11.9163ZM6.50002 20.7624C6.50002 18.2708 8.52111 16.2497 11.0128 16.2497H14.9873C17.4789 16.2497 19.5 18.2708 19.5 20.7624C19.5 21.2601 19.0972 21.6663 18.5961 21.6663H7.40393C6.90627 21.6663 6.50002 21.2635 6.50002 20.7624Z" fill="#6C7278"/>
</svg>
