<svg width="26" height="26" viewBox="0 0 26 26" fill="none" xmlns="http://www.w3.org/2000/svg">
<path d="M22.7432 12.9827C22.7432 13.5921 22.2354 14.0695 21.6599 14.0695H20.5766L20.6003 19.4929C20.6003 19.5843 20.5935 19.6757 20.5833 19.7671V20.3122C20.5833 21.0604 19.9773 21.6663 19.2292 21.6663H18.6875C18.6503 21.6663 18.613 21.6663 18.5758 21.663C18.5284 21.6663 18.481 21.6663 18.4336 21.6663H17.3333H16.5208C15.7727 21.6663 15.1667 21.0604 15.1667 20.3122V19.4997V17.333C15.1667 16.7338 14.6826 16.2497 14.0833 16.2497H11.9167C11.3174 16.2497 10.8333 16.7338 10.8333 17.333V19.4997V20.3122C10.8333 21.0604 10.2273 21.6663 9.47917 21.6663H8.66667H7.58672C7.53594 21.6663 7.48516 21.663 7.43438 21.6596C7.39375 21.663 7.35313 21.6663 7.3125 21.6663H6.77083C6.02266 21.6663 5.41667 21.0604 5.41667 20.3122V16.5205C5.41667 16.49 5.41667 16.4562 5.42005 16.4257V14.0695H4.33333C3.72396 14.0695 3.25 13.5955 3.25 12.9827C3.25 12.6781 3.35156 12.4072 3.58854 12.1702L12.2688 4.60384C12.5057 4.36686 12.7766 4.33301 13.0135 4.33301C13.2505 4.33301 13.5214 4.40072 13.7245 4.56999L22.3708 12.1702C22.6417 12.4072 22.7771 12.6781 22.7432 12.9827Z" fill="#6C7278"/>
</svg>
