<svg width="26" height="26" viewBox="0 0 26 26" fill="none" xmlns="http://www.w3.org/2000/svg">
<path d="M10.7826 6.66217L11.9607 8.66634H11.9167H9.47921C8.73103 8.66634 8.12504 8.06035 8.12504 7.31217C8.12504 6.564 8.73103 5.95801 9.47921 5.95801H9.55369C10.0581 5.95801 10.5287 6.22546 10.7826 6.66217ZM6.50004 7.31217C6.50004 7.79967 6.61853 8.26009 6.82504 8.66634H5.41671C4.81749 8.66634 4.33337 9.15046 4.33337 9.74967V11.9163C4.33337 12.5156 4.81749 12.9997 5.41671 12.9997H20.5834C21.1826 12.9997 21.6667 12.5156 21.6667 11.9163V9.74967C21.6667 9.15046 21.1826 8.66634 20.5834 8.66634H19.175C19.3816 8.26009 19.5 7.79967 19.5 7.31217C19.5 5.66686 18.1662 4.33301 16.5209 4.33301H16.4464C15.3664 4.33301 14.3644 4.90514 13.8159 5.83613L13 7.22754L12.1842 5.83952C11.6357 4.90514 10.6336 4.33301 9.55369 4.33301H9.47921C7.83389 4.33301 6.50004 5.66686 6.50004 7.31217ZM17.875 7.31217C17.875 8.06035 17.2691 8.66634 16.5209 8.66634H14.0834H14.0394L15.2175 6.66217C15.4748 6.22546 15.942 5.95801 16.4464 5.95801H16.5209C17.2691 5.95801 17.875 6.564 17.875 7.31217ZM5.41671 14.083V20.0413C5.41671 20.9385 6.14457 21.6663 7.04171 21.6663H11.9167V14.083H5.41671ZM14.0834 21.6663H18.9584C19.8555 21.6663 20.5834 20.9385 20.5834 20.0413V14.083H14.0834V21.6663Z" fill="#6C7278"/>
</svg>
