<svg width="40" height="32" viewBox="0 0 40 32" fill="none" xmlns="http://www.w3.org/2000/svg">
<path d="M39.9991 16C39.9991 11.7566 38.3134 7.68686 35.3128 4.68629C32.3122 1.68571 28.2426 5.56463e-07 23.9991 0C19.7557 -5.56462e-07 15.686 1.68571 12.6855 4.68629C9.68486 7.68686 7.99915 11.7566 7.99915 16H12.9992C14.6561 16 15.9482 14.6115 16.5551 13.0698C16.9535 12.0575 17.5582 11.1273 18.3422 10.3431C19.8425 8.84284 21.8774 7.99999 23.9991 7.99999C26.1208 7.99999 28.1557 8.84284 29.656 10.3431C31.1563 11.8434 31.9991 13.8783 31.9991 16H39.9991Z" fill="#A3C6FF"/>
<path d="M30.7821 22.1229C31.5861 20.1817 32 18.1011 32 16H39.9992C39.9992 24.8365 32.8357 31.9999 23.9992 31.9999C22.6153 31.9999 21.2724 31.8242 19.9918 31.494C20.7164 31.3073 21.4286 31.0696 22.1229 30.782C24.0642 29.9779 25.828 28.7994 27.3137 27.3137C28.7995 25.8279 29.9781 24.0641 30.7821 22.1229Z" fill="#69A2FF"/>
<path d="M0 16C-3.00588e-07 18.1012 0.413851 20.1818 1.21792 22.123C2.022 24.0642 3.20055 25.828 4.68629 27.3138C6.17202 28.7994 7.93585 29.978 9.87705 30.7821C11.8182 31.5862 13.8988 32 16 32C18.1011 32 20.1817 31.5862 22.1229 30.7821C24.0641 29.978 25.8279 28.7994 27.3137 27.3138C28.7994 25.828 29.9779 24.0642 30.782 22.123C31.5861 20.1818 32 18.1012 32 16H26.9999C25.3431 16 24.0509 17.3885 23.444 18.9301C23.4268 18.9741 23.4091 19.0178 23.391 19.0615C22.989 20.0321 22.3997 20.9141 21.6568 21.6569C20.914 22.3997 20.032 22.9891 19.0614 23.3911C18.0909 23.7932 17.0506 24.0001 16 24.0001C14.9494 24.0001 13.9091 23.7932 12.9386 23.3911C11.9679 22.9891 11.086 22.3997 10.3431 21.6569C9.60026 20.9141 9.01099 20.0321 8.60896 19.0615C8.20691 18.0909 7.99999 17.0506 7.99999 16H0Z" fill="#3B82F6"/>
<path d="M0.00164795 16C0.00164795 7.16341 7.16506 0 16.0016 0C17.3851 0 18.7276 0.175594 20.0081 0.505726C17.2605 1.21353 14.7259 2.64594 12.6855 4.6863C9.6849 7.68684 7.99921 11.7566 7.99921 16H0.00164795Z" fill="#E2EDFF"/>
</svg>
