<svg width="40" height="40" viewBox="0 0 40 40" fill="none" xmlns="http://www.w3.org/2000/svg">
<path d="M17 26C17 26.7956 17.3161 27.5587 17.8787 28.1213C18.4413 28.6839 19.2044 29 20 29C20.7956 29 21.5587 28.6839 22.1213 28.1213C22.6839 27.5587 23 26.7956 23 26" stroke="#0C1523" stroke-width="1.5" stroke-linecap="round" stroke-linejoin="round"/>
<path d="M13.2501 17.75C13.2501 15.9598 13.9612 14.2429 15.2271 12.977C16.493 11.7112 18.2099 11 20.0001 11C21.7903 11 23.5072 11.7112 24.773 12.977C26.0389 14.2429 26.7501 15.9598 26.7501 17.75C26.7501 21.1081 27.5282 23.8063 28.1469 24.875C28.2127 24.9888 28.2473 25.1179 28.2474 25.2493C28.2475 25.3808 28.2131 25.5099 28.1476 25.6239C28.0821 25.7378 27.9878 25.8325 27.8741 25.8985C27.7605 25.9645 27.6315 25.9995 27.5001 26H12.5001C12.3688 25.9992 12.24 25.964 12.1266 25.8978C12.0133 25.8317 11.9192 25.7369 11.8539 25.6231C11.7886 25.5092 11.7544 25.3801 11.7546 25.2489C11.7548 25.1176 11.7894 24.9887 11.8551 24.875C12.4729 23.8063 13.2501 21.1072 13.2501 17.75Z" stroke="#0C1523" stroke-width="1.5" stroke-linecap="round" stroke-linejoin="round"/>
</svg>
