<svg width="24" height="25" viewBox="0 0 24 25" fill="none" xmlns="http://www.w3.org/2000/svg">
<g clip-path="url(#clip0_78_1219)">
<path d="M9.95246 11.4624L12.7569 14.2668L3.10264 23.921C2.70494 24.3187 2.06727 24.3187 1.66961 23.921L0.298274 22.5496C-0.0994247 22.152 -0.0994247 21.5143 0.298274 21.1166L9.95246 11.4624ZM16.4389 9.15857L15.0607 7.78037C14.6699 7.38953 14.0253 7.38953 13.6345 7.78037L10.4324 10.9824L13.2437 13.78L16.4389 10.5847C16.8297 10.1939 16.8297 9.5494 16.4389 9.15857ZM10.0285 0.90202L9.71692 1.91238C9.45933 2.74765 8.80544 3.40154 7.97017 3.65913L6.95981 3.97071C6.79813 4.02057 6.79813 4.24942 6.95981 4.29928L7.97017 4.61087C8.80543 4.86846 9.45933 5.52235 9.71692 6.35762L10.0285 7.36798C10.0784 7.52965 10.3072 7.52965 10.3571 7.36798L10.6687 6.35762C10.9262 5.52235 11.5801 4.86846 12.4154 4.61087L13.4258 4.29928C13.5874 4.24942 13.5874 4.02057 13.4258 3.97071L12.4154 3.65913C11.5801 3.40154 10.9263 2.74764 10.6687 1.91238L10.3571 0.902017C10.3072 0.740343 10.0784 0.740343 10.0285 0.90202ZM17.5581 13.6472L17.3678 14.2643C17.2105 14.7744 16.8111 15.1737 16.301 15.331L15.684 15.5213C15.5852 15.5518 15.5852 15.6915 15.684 15.722L16.301 15.9123C16.8111 16.0696 17.2105 16.4689 17.3678 16.9791L17.5581 17.5961C17.5885 17.6948 17.7283 17.6948 17.7587 17.5961L17.949 16.9791C18.1063 16.4689 18.5057 16.0696 19.0158 15.9123L19.6328 15.722C19.7316 15.6915 19.7316 15.5518 19.6328 15.5213L19.0158 15.331C18.5057 15.1737 18.1063 14.7744 17.949 14.2643L17.7587 13.6472C17.7283 13.5485 17.5885 13.5485 17.5581 13.6472ZM21.3311 7.58122L21.0947 8.34761C20.8993 8.98119 20.4033 9.47719 19.7698 9.67258L19.0034 9.90893C18.8807 9.94675 18.8807 10.1203 19.0034 10.1582L19.7698 10.3945C20.4033 10.5899 20.8993 11.0859 21.0947 11.7195L21.3311 12.4859C21.3689 12.6085 21.5425 12.6085 21.5803 12.4859L21.8167 11.7195C22.012 11.0859 22.508 10.5899 23.1416 10.3945L23.908 10.1582C24.0307 10.1203 24.0307 9.94675 23.908 9.90893L23.1416 9.67258C22.508 9.47719 22.012 8.98119 21.8167 8.34761L21.5803 7.58122C21.5425 7.45858 21.3689 7.45858 21.3311 7.58122Z" fill="black"/>
</g>
<defs>
<clipPath id="clip0_78_1219">
<rect width="24" height="24" fill="white" transform="translate(0 0.5)"/>
</clipPath>
</defs>
</svg>
