<svg width="17" height="17" viewBox="0 0 17 17" fill="none" xmlns="http://www.w3.org/2000/svg">
<g clip-path="url(#clip0_118_580)">
<path d="M14.0375 12.7271C14.0372 12.7271 14.0369 12.7271 14.0366 12.7271L11.8591 12.7311C11.5992 12.7316 11.3889 12.9427 11.3894 13.2026C11.3898 13.4621 11.6005 13.6721 11.8599 13.6721C11.8602 13.6721 11.8605 13.6721 11.8608 13.6721L12.8323 13.6704C12.3466 14.055 11.8126 14.3677 11.2352 14.6006C8.80103 15.5851 6.02776 15.0212 4.16997 13.1636C2.31632 11.3102 1.75105 8.54078 2.72997 6.1081C2.827 5.86702 2.7102 5.59291 2.46907 5.49598C2.22804 5.39915 1.95387 5.51574 1.85684 5.75683C0.736933 8.54012 1.38371 11.7086 3.50446 13.829C4.93571 15.26 6.84169 16.0199 8.78446 16.0199C9.72696 16.0199 10.6782 15.8411 11.5878 15.473C12.3082 15.1824 12.9703 14.7842 13.5648 14.2879L13.5626 15.4418C13.5622 15.7017 13.7724 15.9128 14.0324 15.9132C14.0327 15.9132 14.0329 15.9132 14.0332 15.9132C14.2927 15.9132 14.5033 15.7032 14.5038 15.4437L14.5079 13.1985C14.5081 13.0734 14.4586 12.9534 14.3702 12.865C14.282 12.7766 14.1623 12.7271 14.0375 12.7271Z" fill="white"/>
<path d="M14.0799 3.25542C11.9542 1.13008 8.78108 0.484928 5.9966 1.6114C5.27623 1.90189 4.6142 2.30012 4.01957 2.79649L4.02173 1.64264C4.0222 1.38274 3.81195 1.17167 3.55199 1.1712C3.55171 1.1712 3.55143 1.1712 3.55115 1.1712C3.29166 1.1712 3.08103 1.38123 3.08056 1.64076L3.07642 3.88589C3.07623 4.01104 3.12573 4.13102 3.2142 4.21947C3.30249 4.30774 3.42211 4.35733 3.547 4.35733C3.54729 4.35733 3.54757 4.35733 3.54785 4.35733L5.72536 4.35328C5.98522 4.35281 6.19557 4.14175 6.1951 3.88184C6.19463 3.62232 5.98399 3.41228 5.72451 3.41228C5.72423 3.41228 5.72395 3.41228 5.72366 3.41228L4.75218 3.41407C5.23792 3.0293 5.77195 2.7166 6.34926 2.4838C8.78315 1.49914 11.5565 2.06327 13.4144 3.9208C15.268 5.7741 15.8333 8.54356 14.8544 10.9763C14.7574 11.2174 14.8742 11.4915 15.1153 11.5884C15.1729 11.6116 15.2323 11.6225 15.2908 11.6225C15.4772 11.6225 15.6536 11.511 15.7275 11.3275C16.8474 8.54431 16.2007 5.37587 14.0799 3.25542Z" fill="white"/>
</g>
<defs>
<clipPath id="clip0_118_580">
<rect width="16" height="16" fill="white" transform="translate(0.75 0.5)"/>
</clipPath>
</defs>
</svg>
