<svg width="14" height="15" viewBox="0 0 14 15" fill="none" xmlns="http://www.w3.org/2000/svg">
<path fill-rule="evenodd" clip-rule="evenodd" d="M9.5 2.50017C9.49997 2.03525 9.6619 1.58484 9.95796 1.22638C10.254 0.867919 10.6657 0.623801 11.1223 0.535996C11.5788 0.448191 12.0517 0.522185 12.4596 0.745257C12.8675 0.968328 13.185 1.32654 13.3574 1.75831C13.5298 2.19007 13.5464 2.66842 13.4044 3.1111C13.2623 3.55379 12.9705 3.93315 12.579 4.18398C12.1875 4.4348 11.7209 4.54141 11.2594 4.48548C10.7979 4.42955 10.3702 4.21457 10.05 3.8775L4.436 6.99683C4.52177 7.32691 4.52177 7.67343 4.436 8.0035L10.05 11.1228C10.3855 10.7701 10.8381 10.5518 11.3231 10.509C11.808 10.4661 12.2919 10.6015 12.6841 10.89C13.0763 11.1784 13.3498 11.5999 13.4534 12.0756C13.557 12.5512 13.4835 13.0483 13.2468 13.4737C13.0101 13.8991 12.6264 14.2235 12.1675 14.3862C11.7087 14.5489 11.2063 14.5386 10.7545 14.3574C10.3027 14.1761 9.9325 13.8363 9.71334 13.4016C9.49418 12.9669 9.44108 12.4672 9.564 11.9962L3.95 8.8775C3.67457 9.1675 3.31852 9.36825 2.92784 9.45384C2.53715 9.53942 2.12978 9.50591 1.75833 9.35763C1.38689 9.20934 1.06843 8.9531 0.844095 8.62199C0.619759 8.29088 0.499847 7.90012 0.499847 7.50017C0.499847 7.10022 0.619759 6.70945 0.844095 6.37835C1.06843 6.04724 1.38689 5.79099 1.75833 5.64271C2.12978 5.49442 2.53715 5.46091 2.92784 5.5465C3.31852 5.63208 3.67457 5.83284 3.95 6.12283L9.564 3.0035C9.52139 2.83912 9.49988 2.66998 9.5 2.50017Z" fill="black"/>
</svg>
