<svg width="16" height="12" viewBox="0 0 16 12" fill="none" xmlns="http://www.w3.org/2000/svg">
<g clip-path="url(#clip0_154_1192)">
<path d="M2.75 3C2.75 2.20435 3.06607 1.44129 3.62868 0.87868C4.19129 0.316071 4.95435 0 5.75 0C6.54565 0 7.30871 0.316071 7.87132 0.87868C8.43393 1.44129 8.75 2.20435 8.75 3C8.75 3.79565 8.43393 4.55871 7.87132 5.12132C7.30871 5.68393 6.54565 6 5.75 6C4.95435 6 4.19129 5.68393 3.62868 5.12132C3.06607 4.55871 2.75 3.79565 2.75 3ZM0.5 11.3039C0.5 8.99531 2.37031 7.125 4.67891 7.125H6.82109C9.12969 7.125 11 8.99531 11 11.3039C11 11.6883 10.6883 12 10.3039 12H1.19609C0.811719 12 0.5 11.6883 0.5 11.3039ZM12.3125 7.3125V5.8125H10.8125C10.5008 5.8125 10.25 5.56172 10.25 5.25C10.25 4.93828 10.5008 4.6875 10.8125 4.6875H12.3125V3.1875C12.3125 2.87578 12.5633 2.625 12.875 2.625C13.1867 2.625 13.4375 2.87578 13.4375 3.1875V4.6875H14.9375C15.2492 4.6875 15.5 4.93828 15.5 5.25C15.5 5.56172 15.2492 5.8125 14.9375 5.8125H13.4375V7.3125C13.4375 7.62422 13.1867 7.875 12.875 7.875C12.5633 7.875 12.3125 7.62422 12.3125 7.3125Z" fill="#3B82F6"/>
</g>
<defs>
<clipPath id="clip0_154_1192">
<path d="M0.5 0H15.5V12H0.5V0Z" fill="white"/>
</clipPath>
</defs>
</svg>
