<svg width="16" height="11" viewBox="0 0 16 11" fill="none" xmlns="http://www.w3.org/2000/svg">
<path d="M4.875 1.125H14.875M4.875 5.5H14.875M4.875 9.875H14.875M1.125 1.125H1.13083V1.13167H1.125V1.125ZM1.4375 1.125C1.4375 1.20788 1.40458 1.28737 1.34597 1.34597C1.28737 1.40458 1.20788 1.4375 1.125 1.4375C1.04212 1.4375 0.962634 1.40458 0.904029 1.34597C0.845424 1.28737 0.8125 1.20788 0.8125 1.125C0.8125 1.04212 0.845424 0.962634 0.904029 0.904029C0.962634 0.845424 1.04212 0.8125 1.125 0.8125C1.20788 0.8125 1.28737 0.845424 1.34597 0.904029C1.40458 0.962634 1.4375 1.04212 1.4375 1.125ZM1.125 5.5H1.13083V5.50667H1.125V5.5ZM1.4375 5.5C1.4375 5.58288 1.40458 5.66237 1.34597 5.72097C1.28737 5.77958 1.20788 5.8125 1.125 5.8125C1.04212 5.8125 0.962634 5.77958 0.904029 5.72097C0.845424 5.66237 0.8125 5.58288 0.8125 5.5C0.8125 5.41712 0.845424 5.33763 0.904029 5.27903C0.962634 5.22042 1.04212 5.1875 1.125 5.1875C1.20788 5.1875 1.28737 5.22042 1.34597 5.27903C1.40458 5.33763 1.4375 5.41712 1.4375 5.5ZM1.125 9.875H1.13083V9.88167H1.125V9.875ZM1.4375 9.875C1.4375 9.95788 1.40458 10.0374 1.34597 10.096C1.28737 10.1546 1.20788 10.1875 1.125 10.1875C1.04212 10.1875 0.962634 10.1546 0.904029 10.096C0.845424 10.0374 0.8125 9.95788 0.8125 9.875C0.8125 9.79212 0.845424 9.71263 0.904029 9.65403C0.962634 9.59542 1.04212 9.5625 1.125 9.5625C1.20788 9.5625 1.28737 9.59542 1.34597 9.65403C1.40458 9.71263 1.4375 9.79212 1.4375 9.875Z" stroke="black" stroke-width="1.5" stroke-linecap="round" stroke-linejoin="round"/>
</svg>
