<svg width="16" height="16" viewBox="0 0 16 16" fill="none" xmlns="http://www.w3.org/2000/svg">
<rect x="0.5" y="0.5" width="15" height="15" rx="3.5" fill="white"/>
<rect x="0.5" y="0.5" width="15" height="15" rx="3.5" stroke="#EAEAEA"/>
<path d="M8 7.29688C8.38833 7.29688 8.70312 7.61167 8.70312 8C8.70312 8.38833 8.38833 8.70312 8 8.70312C7.61167 8.70312 7.29688 8.38833 7.29688 8C7.29688 7.61167 7.61167 7.29688 8 7.29688Z" fill="#0C1523" stroke="#0C1523" stroke-width="0.09375"/>
<path d="M8 3.04688C8.38833 3.04688 8.70312 3.36167 8.70312 3.75C8.70312 4.13833 8.38833 4.45312 8 4.45312C7.61167 4.45312 7.29688 4.13833 7.29688 3.75C7.29688 3.36167 7.61167 3.04688 8 3.04688Z" fill="#0C1523" stroke="#0C1523" stroke-width="0.09375"/>
<path d="M8 13C8.41421 13 8.75 12.6642 8.75 12.25C8.75 11.8358 8.41421 11.5 8 11.5C7.58579 11.5 7.25 11.8358 7.25 12.25C7.25 12.6642 7.58579 13 8 13Z" fill="#0C1523"/>
</svg>
